%FSLAX46Y46*%
G04 Gerber Fmt 4.6, Leading zero omitted, Abs format (unit mm)*
G04 Created by KiCad (PCBNEW (2014-08-06 BZR 5059)-product) date 24/08/2014 20:45:46*
%MOMM*%
G01*
G04 APERTURE LIST*
%ADD10C,0.100000*%
%ADD11C,0.300000*%
%ADD12R,2.032000X2.032000*%
%ADD13O,2.032000X2.032000*%
%ADD14R,2.235200X2.235200*%
%ADD15R,2.032000X1.727200*%
%ADD16O,2.032000X1.727200*%
%ADD17R,1.727200X2.032000*%
%ADD18O,1.727200X2.032000*%
G04 APERTURE END LIST*
D10*
D11*
X119644999Y-67280714D02*
X119716428Y-67352143D01*
X119930714Y-67423571D01*
X120073571Y-67423571D01*
X120287856Y-67352143D01*
X120430714Y-67209286D01*
X120502142Y-67066429D01*
X120573571Y-66780714D01*
X120573571Y-66566429D01*
X120502142Y-66280714D01*
X120430714Y-66137857D01*
X120287856Y-65995000D01*
X120073571Y-65923571D01*
X119930714Y-65923571D01*
X119716428Y-65995000D01*
X119644999Y-66066429D01*
X119002142Y-67423571D02*
X119002142Y-66423571D01*
X119002142Y-66709286D02*
X118930714Y-66566429D01*
X118859285Y-66495000D01*
X118716428Y-66423571D01*
X118573571Y-66423571D01*
X117859285Y-67423571D02*
X118002143Y-67352143D01*
X118073571Y-67280714D01*
X118145000Y-67137857D01*
X118145000Y-66709286D01*
X118073571Y-66566429D01*
X118002143Y-66495000D01*
X117859285Y-66423571D01*
X117645000Y-66423571D01*
X117502143Y-66495000D01*
X117430714Y-66566429D01*
X117359285Y-66709286D01*
X117359285Y-67137857D01*
X117430714Y-67280714D01*
X117502143Y-67352143D01*
X117645000Y-67423571D01*
X117859285Y-67423571D01*
X116787857Y-67352143D02*
X116645000Y-67423571D01*
X116359285Y-67423571D01*
X116216428Y-67352143D01*
X116145000Y-67209286D01*
X116145000Y-67137857D01*
X116216428Y-66995000D01*
X116359285Y-66923571D01*
X116573571Y-66923571D01*
X116716428Y-66852143D01*
X116787857Y-66709286D01*
X116787857Y-66637857D01*
X116716428Y-66495000D01*
X116573571Y-66423571D01*
X116359285Y-66423571D01*
X116216428Y-66495000D01*
X115573571Y-67352143D02*
X115430714Y-67423571D01*
X115144999Y-67423571D01*
X115002142Y-67352143D01*
X114930714Y-67209286D01*
X114930714Y-67137857D01*
X115002142Y-66995000D01*
X115144999Y-66923571D01*
X115359285Y-66923571D01*
X115502142Y-66852143D01*
X115573571Y-66709286D01*
X115573571Y-66637857D01*
X115502142Y-66495000D01*
X115359285Y-66423571D01*
X115144999Y-66423571D01*
X115002142Y-66495000D01*
X114359285Y-67352143D02*
X114144999Y-67423571D01*
X113787856Y-67423571D01*
X113644999Y-67352143D01*
X113573570Y-67280714D01*
X113502142Y-67137857D01*
X113502142Y-66995000D01*
X113573570Y-66852143D01*
X113644999Y-66780714D01*
X113787856Y-66709286D01*
X114073570Y-66637857D01*
X114216428Y-66566429D01*
X114287856Y-66495000D01*
X114359285Y-66352143D01*
X114359285Y-66209286D01*
X114287856Y-66066429D01*
X114216428Y-65995000D01*
X114073570Y-65923571D01*
X113716428Y-65923571D01*
X113502142Y-65995000D01*
X113073571Y-66423571D02*
X112502142Y-66423571D01*
X112859285Y-65923571D02*
X112859285Y-67209286D01*
X112787857Y-67352143D01*
X112644999Y-67423571D01*
X112502142Y-67423571D01*
X111787856Y-67423571D02*
X111930714Y-67352143D01*
X112002142Y-67280714D01*
X112073571Y-67137857D01*
X112073571Y-66709286D01*
X112002142Y-66566429D01*
X111930714Y-66495000D01*
X111787856Y-66423571D01*
X111573571Y-66423571D01*
X111430714Y-66495000D01*
X111359285Y-66566429D01*
X111287856Y-66709286D01*
X111287856Y-67137857D01*
X111359285Y-67280714D01*
X111430714Y-67352143D01*
X111573571Y-67423571D01*
X111787856Y-67423571D01*
X110644999Y-67423571D02*
X110644999Y-66423571D01*
X110644999Y-66566429D02*
X110573571Y-66495000D01*
X110430713Y-66423571D01*
X110216428Y-66423571D01*
X110073571Y-66495000D01*
X110002142Y-66637857D01*
X110002142Y-67423571D01*
X110002142Y-66637857D02*
X109930713Y-66495000D01*
X109787856Y-66423571D01*
X109573571Y-66423571D01*
X109430713Y-66495000D01*
X109359285Y-66637857D01*
X109359285Y-67423571D01*
X108644999Y-66423571D02*
X108644999Y-67923571D01*
X108644999Y-66495000D02*
X108502142Y-66423571D01*
X108216428Y-66423571D01*
X108073571Y-66495000D01*
X108002142Y-66566429D01*
X107930713Y-66709286D01*
X107930713Y-67137857D01*
X108002142Y-67280714D01*
X108073571Y-67352143D01*
X108216428Y-67423571D01*
X108502142Y-67423571D01*
X108644999Y-67352143D01*
X106287856Y-66423571D02*
X105930713Y-67423571D01*
X105573571Y-66423571D01*
X104216428Y-67423571D02*
X105073571Y-67423571D01*
X104644999Y-67423571D02*
X104644999Y-65923571D01*
X104787856Y-66137857D01*
X104930714Y-66280714D01*
X105073571Y-66352143D01*
X122895001Y-68823571D02*
X122609287Y-69823571D01*
X122323573Y-69109286D01*
X122037858Y-69823571D01*
X121752144Y-68823571D01*
X121323572Y-68823571D02*
X121037858Y-69823571D01*
X120752144Y-69109286D01*
X120466429Y-69823571D01*
X120180715Y-68823571D01*
X119752143Y-68823571D02*
X119466429Y-69823571D01*
X119180715Y-69109286D01*
X118895000Y-69823571D01*
X118609286Y-68823571D01*
X118037857Y-69680714D02*
X117966429Y-69752143D01*
X118037857Y-69823571D01*
X118109286Y-69752143D01*
X118037857Y-69680714D01*
X118037857Y-69823571D01*
X116680714Y-69823571D02*
X116680714Y-68323571D01*
X116680714Y-69752143D02*
X116823571Y-69823571D01*
X117109285Y-69823571D01*
X117252143Y-69752143D01*
X117323571Y-69680714D01*
X117395000Y-69537857D01*
X117395000Y-69109286D01*
X117323571Y-68966429D01*
X117252143Y-68895000D01*
X117109285Y-68823571D01*
X116823571Y-68823571D01*
X116680714Y-68895000D01*
X115752142Y-69823571D02*
X115895000Y-69752143D01*
X115966428Y-69680714D01*
X116037857Y-69537857D01*
X116037857Y-69109286D01*
X115966428Y-68966429D01*
X115895000Y-68895000D01*
X115752142Y-68823571D01*
X115537857Y-68823571D01*
X115395000Y-68895000D01*
X115323571Y-68966429D01*
X115252142Y-69109286D01*
X115252142Y-69537857D01*
X115323571Y-69680714D01*
X115395000Y-69752143D01*
X115537857Y-69823571D01*
X115752142Y-69823571D01*
X114394999Y-69823571D02*
X114537857Y-69752143D01*
X114609285Y-69609286D01*
X114609285Y-68323571D01*
X113180714Y-68823571D02*
X113180714Y-70037857D01*
X113252143Y-70180714D01*
X113323571Y-70252143D01*
X113466428Y-70323571D01*
X113680714Y-70323571D01*
X113823571Y-70252143D01*
X113180714Y-69752143D02*
X113323571Y-69823571D01*
X113609285Y-69823571D01*
X113752143Y-69752143D01*
X113823571Y-69680714D01*
X113895000Y-69537857D01*
X113895000Y-69109286D01*
X113823571Y-68966429D01*
X113752143Y-68895000D01*
X113609285Y-68823571D01*
X113323571Y-68823571D01*
X113180714Y-68895000D01*
X111823571Y-69823571D02*
X111823571Y-69037857D01*
X111895000Y-68895000D01*
X112037857Y-68823571D01*
X112323571Y-68823571D01*
X112466428Y-68895000D01*
X111823571Y-69752143D02*
X111966428Y-69823571D01*
X112323571Y-69823571D01*
X112466428Y-69752143D01*
X112537857Y-69609286D01*
X112537857Y-69466429D01*
X112466428Y-69323571D01*
X112323571Y-69252143D01*
X111966428Y-69252143D01*
X111823571Y-69180714D01*
X111109285Y-68823571D02*
X111109285Y-69823571D01*
X111109285Y-68966429D02*
X111037857Y-68895000D01*
X110894999Y-68823571D01*
X110680714Y-68823571D01*
X110537857Y-68895000D01*
X110466428Y-69037857D01*
X110466428Y-69823571D01*
X109537856Y-69823571D02*
X109680714Y-69752143D01*
X109752142Y-69680714D01*
X109823571Y-69537857D01*
X109823571Y-69109286D01*
X109752142Y-68966429D01*
X109680714Y-68895000D01*
X109537856Y-68823571D01*
X109323571Y-68823571D01*
X109180714Y-68895000D01*
X109109285Y-68966429D01*
X109037856Y-69109286D01*
X109037856Y-69537857D01*
X109109285Y-69680714D01*
X109180714Y-69752143D01*
X109323571Y-69823571D01*
X109537856Y-69823571D01*
X108609285Y-68823571D02*
X108037856Y-68823571D01*
X108394999Y-69823571D02*
X108394999Y-68537857D01*
X108323571Y-68395000D01*
X108180713Y-68323571D01*
X108037856Y-68323571D01*
X107752142Y-68823571D02*
X107180713Y-68823571D01*
X107537856Y-69823571D02*
X107537856Y-68537857D01*
X107466428Y-68395000D01*
X107323570Y-68323571D01*
X107180713Y-68323571D01*
X106680713Y-69680714D02*
X106609285Y-69752143D01*
X106680713Y-69823571D01*
X106752142Y-69752143D01*
X106680713Y-69680714D01*
X106680713Y-69823571D01*
X105323570Y-69752143D02*
X105466427Y-69823571D01*
X105752141Y-69823571D01*
X105894999Y-69752143D01*
X105966427Y-69680714D01*
X106037856Y-69537857D01*
X106037856Y-69109286D01*
X105966427Y-68966429D01*
X105894999Y-68895000D01*
X105752141Y-68823571D01*
X105466427Y-68823571D01*
X105323570Y-68895000D01*
X104466427Y-69823571D02*
X104609285Y-69752143D01*
X104680713Y-69680714D01*
X104752142Y-69537857D01*
X104752142Y-69109286D01*
X104680713Y-68966429D01*
X104609285Y-68895000D01*
X104466427Y-68823571D01*
X104252142Y-68823571D01*
X104109285Y-68895000D01*
X104037856Y-68966429D01*
X103966427Y-69109286D01*
X103966427Y-69537857D01*
X104037856Y-69680714D01*
X104109285Y-69752143D01*
X104252142Y-69823571D01*
X104466427Y-69823571D01*
X103323570Y-69823571D02*
X103323570Y-68823571D01*
X103323570Y-68966429D02*
X103252142Y-68895000D01*
X103109284Y-68823571D01*
X102894999Y-68823571D01*
X102752142Y-68895000D01*
X102680713Y-69037857D01*
X102680713Y-69823571D01*
X102680713Y-69037857D02*
X102609284Y-68895000D01*
X102466427Y-68823571D01*
X102252142Y-68823571D01*
X102109284Y-68895000D01*
X102037856Y-69037857D01*
X102037856Y-69823571D01*
%LPC*%
D12*
X94615000Y-46990000D03*
D13*
X92075000Y-46990000D03*
D12*
X92075000Y-83820000D03*
D13*
X92075000Y-81280000D03*
D14*
X130556000Y-50038000D03*
X130810000Y-59055000D03*
X130810000Y-67945000D03*
D15*
X92075000Y-57785000D03*
D16*
X92075000Y-55245000D03*
X92075000Y-52705000D03*
D15*
X92075000Y-65405000D03*
D16*
X92075000Y-62865000D03*
X92075000Y-60325000D03*
D17*
X104775000Y-46990000D03*
D18*
X102235000Y-46990000D03*
X99695000Y-46990000D03*
D17*
X112395000Y-46990000D03*
D18*
X109855000Y-46990000D03*
X107315000Y-46990000D03*
D15*
X126365000Y-47625000D03*
D16*
X126365000Y-50165000D03*
X126365000Y-52705000D03*
D15*
X126365000Y-56515000D03*
D16*
X126365000Y-59055000D03*
X126365000Y-61595000D03*
D15*
X126365000Y-65405000D03*
D16*
X126365000Y-67945000D03*
X126365000Y-70485000D03*
D17*
X110490000Y-83820000D03*
D18*
X113030000Y-83820000D03*
X115570000Y-83820000D03*
D17*
X118110000Y-83820000D03*
D18*
X120650000Y-83820000D03*
X123190000Y-83820000D03*
D17*
X125730000Y-83820000D03*
D18*
X128270000Y-83820000D03*
X130810000Y-83820000D03*
M02*
