M48
;DRILL file {kicad (2014-08-06 BZR 5059)-product} date 24/08/2014 20:45:49
;FORMAT={-:-/ absolute / inch / decimal}
FMAT,2
INCH,TZ
T1C0.020
T2C0.040
%
G90
G05
M72
T1
X3.8743Y-1.9869
X3.959Y-2.2701
X3.9643Y-2.3283
X3.9971Y-2.425
X4.1156Y-2.1823
X4.1781Y-2.325
X4.2677Y-3.1612
X4.3638Y-2.228
X4.3827Y-2.8
X4.681Y-2.9827
X4.7236Y-2.8209
X5.0322Y-3.1925
X5.0605Y-2.8497
X5.2Y-3.2
T2
X3.625Y-1.85
X3.625Y-2.075
X3.625Y-2.175
X3.625Y-2.275
X3.625Y-2.375
X3.625Y-2.475
X3.625Y-2.575
X3.625Y-3.2
X3.625Y-3.3
X3.725Y-1.85
X3.925Y-1.85
X4.025Y-1.85
X4.125Y-1.85
X4.225Y-1.85
X4.325Y-1.85
X4.35Y-3.3
X4.425Y-1.85
X4.45Y-3.3
X4.55Y-3.3
X4.65Y-3.3
X4.75Y-3.3
X4.85Y-3.3
X4.95Y-3.3
X4.975Y-1.875
X4.975Y-1.975
X4.975Y-2.075
X4.975Y-2.225
X4.975Y-2.325
X4.975Y-2.425
X4.975Y-2.575
X4.975Y-2.675
X4.975Y-2.775
X5.05Y-3.3
X5.14Y-1.97
X5.15Y-2.325
X5.15Y-2.675
X5.15Y-3.3
T0
M30
