%FSLAX46Y46*%
G04 Gerber Fmt 4.6, Leading zero omitted, Abs format (unit mm)*
G04 Created by KiCad (PCBNEW (2014-08-06 BZR 5059)-product) date 24/08/2014 20:45:46*
%MOMM*%
G01*
G04 APERTURE LIST*
%ADD10C,0.100000*%
%ADD11R,0.889000X1.397000*%
%ADD12R,2.999740X1.600200*%
%ADD13R,2.032000X2.032000*%
%ADD14O,2.032000X2.032000*%
%ADD15R,2.235200X2.235200*%
%ADD16R,1.397000X0.889000*%
%ADD17R,2.032000X1.727200*%
%ADD18O,2.032000X1.727200*%
%ADD19R,1.727200X2.032000*%
%ADD20O,1.727200X2.032000*%
%ADD21R,1.600000X0.600000*%
%ADD22R,1.600200X2.999740*%
%ADD23R,0.600000X1.600000*%
%ADD24R,1.143000X0.508000*%
%ADD25C,0.762000*%
%ADD26C,0.381000*%
G04 APERTURE END LIST*
D10*
D11*
X98742500Y-58420000D03*
X96837500Y-58420000D03*
D12*
X108879640Y-70485000D03*
X104480360Y-70485000D03*
X99989640Y-72390000D03*
X95590360Y-72390000D03*
D11*
X98742500Y-55245000D03*
X96837500Y-55245000D03*
X98742500Y-61595000D03*
X96837500Y-61595000D03*
D12*
X117180360Y-47625000D03*
X121579640Y-47625000D03*
X117180360Y-56515000D03*
X121579640Y-56515000D03*
X117180360Y-65405000D03*
X121579640Y-65405000D03*
D13*
X94615000Y-46990000D03*
D14*
X92075000Y-46990000D03*
D13*
X92075000Y-83820000D03*
D14*
X92075000Y-81280000D03*
D15*
X130556000Y-50038000D03*
X130810000Y-59055000D03*
X130810000Y-67945000D03*
D11*
X96837500Y-52070000D03*
X98742500Y-52070000D03*
X105727500Y-65405000D03*
X103822500Y-65405000D03*
X98742500Y-66675000D03*
X96837500Y-66675000D03*
X113347500Y-69850000D03*
X115252500Y-69850000D03*
X113347500Y-60960000D03*
X115252500Y-60960000D03*
X98742500Y-64135000D03*
X96837500Y-64135000D03*
D16*
X128270000Y-75628500D03*
X128270000Y-73723500D03*
D11*
X115252500Y-52070000D03*
X113347500Y-52070000D03*
X112077500Y-77470000D03*
X113982500Y-77470000D03*
X112077500Y-74295000D03*
X113982500Y-74295000D03*
D16*
X128270000Y-77787500D03*
X128270000Y-79692500D03*
X130810000Y-73723500D03*
X130810000Y-75628500D03*
X130810000Y-79692500D03*
X130810000Y-77787500D03*
X125730000Y-79692500D03*
X125730000Y-77787500D03*
D11*
X120332500Y-52070000D03*
X118427500Y-52070000D03*
X120332500Y-60960000D03*
X118427500Y-60960000D03*
X120332500Y-69850000D03*
X118427500Y-69850000D03*
D17*
X92075000Y-57785000D03*
D18*
X92075000Y-55245000D03*
X92075000Y-52705000D03*
D17*
X92075000Y-65405000D03*
D18*
X92075000Y-62865000D03*
X92075000Y-60325000D03*
D19*
X104775000Y-46990000D03*
D20*
X102235000Y-46990000D03*
X99695000Y-46990000D03*
D19*
X112395000Y-46990000D03*
D20*
X109855000Y-46990000D03*
X107315000Y-46990000D03*
D17*
X126365000Y-47625000D03*
D18*
X126365000Y-50165000D03*
X126365000Y-52705000D03*
D17*
X126365000Y-56515000D03*
D18*
X126365000Y-59055000D03*
X126365000Y-61595000D03*
D17*
X126365000Y-65405000D03*
D18*
X126365000Y-67945000D03*
X126365000Y-70485000D03*
D21*
X122588000Y-73817000D03*
X117188000Y-73817000D03*
X122588000Y-75067000D03*
X122588000Y-76317000D03*
X122588000Y-77567000D03*
X117188000Y-75067000D03*
X117188000Y-76317000D03*
X117188000Y-77567000D03*
D22*
X106680000Y-75905360D03*
X106680000Y-80304640D03*
D19*
X110490000Y-83820000D03*
D20*
X113030000Y-83820000D03*
X115570000Y-83820000D03*
D19*
X118110000Y-83820000D03*
D20*
X120650000Y-83820000D03*
X123190000Y-83820000D03*
D19*
X125730000Y-83820000D03*
D20*
X128270000Y-83820000D03*
X130810000Y-83820000D03*
D23*
X97185000Y-77945000D03*
X97185000Y-83345000D03*
X98435000Y-77945000D03*
X99685000Y-77945000D03*
X100935000Y-77945000D03*
X98435000Y-83345000D03*
X99685000Y-83345000D03*
X100935000Y-83345000D03*
D24*
X109347000Y-61595000D03*
X109347000Y-60325000D03*
X109347000Y-59055000D03*
X109347000Y-57785000D03*
X109347000Y-56515000D03*
X109347000Y-55245000D03*
X109347000Y-53975000D03*
X102997000Y-53975000D03*
X102997000Y-55245000D03*
X102997000Y-57785000D03*
X102997000Y-59055000D03*
X102997000Y-60325000D03*
X102997000Y-61595000D03*
X102997000Y-56515000D03*
D25*
X106124100Y-59055000D03*
X100692700Y-59139100D03*
X98407700Y-50467500D03*
X104536400Y-55430300D03*
X118898300Y-75760200D03*
X100559700Y-57660900D03*
X108399900Y-80293800D03*
X101525900Y-61595000D03*
X111320300Y-71120300D03*
X110839300Y-56590200D03*
X128536700Y-72382800D03*
X132080000Y-81280000D03*
X127818100Y-81089300D03*
X119978800Y-71651600D03*
D26*
X109347000Y-59055000D02*
X106124100Y-59055000D01*
X98742500Y-58420000D02*
X99758800Y-58420000D01*
X100692700Y-59139100D02*
X100477900Y-59139100D01*
X100477900Y-59139100D02*
X99758800Y-58420000D01*
X98407700Y-50467500D02*
X98739900Y-50799700D01*
X98739900Y-50799700D02*
X98742500Y-50799700D01*
X98742500Y-52070000D02*
X98742500Y-50799700D01*
X96837500Y-58420000D02*
X95821200Y-58420000D01*
X92075000Y-46990000D02*
X92075000Y-47359000D01*
X92075000Y-47359000D02*
X95821200Y-51105200D01*
X95821200Y-51105200D02*
X95821200Y-58420000D01*
X104140300Y-55430300D02*
X104536400Y-55430300D01*
X128270000Y-77787500D02*
X128270000Y-76771200D01*
X126365000Y-70485000D02*
X126365000Y-75755500D01*
X126365000Y-75755500D02*
X127380700Y-76771200D01*
X127380700Y-76771200D02*
X128270000Y-76771200D01*
X104480400Y-70485000D02*
X104480400Y-71856900D01*
X105994100Y-75905400D02*
X105994100Y-73370600D01*
X105994100Y-73370600D02*
X104480400Y-71856900D01*
X105994100Y-75905400D02*
X105308100Y-75905400D01*
X106680000Y-75905400D02*
X105994100Y-75905400D01*
X104140300Y-55430300D02*
X104140300Y-55245000D01*
X104140300Y-60325000D02*
X104140300Y-55430300D01*
X102997000Y-55245000D02*
X104140300Y-55245000D01*
X102997000Y-60325000D02*
X104140300Y-60325000D01*
X118559800Y-75067000D02*
X118559800Y-75421700D01*
X118559800Y-75421700D02*
X118898300Y-75760200D01*
X117188000Y-75067000D02*
X118559800Y-75067000D01*
X96837500Y-52070000D02*
X96837500Y-50799700D01*
X94615000Y-46990000D02*
X94615000Y-48577800D01*
X94615000Y-48577800D02*
X96836900Y-50799700D01*
X96836900Y-50799700D02*
X96837500Y-50799700D01*
X92075000Y-62865000D02*
X92075000Y-65405000D01*
X97185000Y-83345000D02*
X97185000Y-84716800D01*
X104519500Y-82349500D02*
X104519500Y-76694000D01*
X104519500Y-76694000D02*
X105308100Y-75905400D01*
X113030000Y-85407800D02*
X107577800Y-85407800D01*
X107577800Y-85407800D02*
X104519500Y-82349500D01*
X97185000Y-84716800D02*
X102152200Y-84716800D01*
X102152200Y-84716800D02*
X104519500Y-82349500D01*
X113030000Y-83820000D02*
X113030000Y-85407800D01*
X108879600Y-70485000D02*
X108879600Y-69113100D01*
X99272600Y-81560800D02*
X102235000Y-78598400D01*
X102235000Y-78598400D02*
X102235000Y-69610200D01*
X102235000Y-69610200D02*
X102732100Y-69113100D01*
X102732100Y-69113100D02*
X108879600Y-69113100D01*
X99272600Y-81560800D02*
X99685000Y-81973200D01*
X93662800Y-81280000D02*
X93794400Y-81148400D01*
X93794400Y-81148400D02*
X98860200Y-81148400D01*
X98860200Y-81148400D02*
X99272600Y-81560800D01*
X99685000Y-83345000D02*
X99685000Y-81973200D01*
X92075000Y-81280000D02*
X93662800Y-81280000D01*
X122588000Y-73817000D02*
X121216200Y-73817000D01*
X108879600Y-70485000D02*
X108879600Y-71856900D01*
X108879600Y-71856900D02*
X109967900Y-72945200D01*
X109967900Y-72945200D02*
X120344400Y-72945200D01*
X120344400Y-72945200D02*
X121216200Y-73817000D01*
X102997000Y-57785000D02*
X101853700Y-57785000D01*
X101853700Y-57785000D02*
X101729600Y-57660900D01*
X101729600Y-57660900D02*
X100559700Y-57660900D01*
X110490300Y-57785000D02*
X110490300Y-62640900D01*
X110490300Y-62640900D02*
X105567100Y-67564100D01*
X105567100Y-67564100D02*
X103081200Y-67564100D01*
X103081200Y-67564100D02*
X99627200Y-71018100D01*
X99627200Y-71018100D02*
X95590400Y-71018100D01*
X95590400Y-72390000D02*
X95590400Y-71018100D01*
X109347000Y-57785000D02*
X110490300Y-57785000D01*
X108399900Y-80293800D02*
X113198400Y-80293800D01*
X113198400Y-80293800D02*
X115816200Y-77676000D01*
X115816200Y-77676000D02*
X115816200Y-77567000D01*
X108399900Y-80293800D02*
X108389100Y-80304600D01*
X108389100Y-80304600D02*
X106680000Y-80304600D01*
X95590400Y-72390000D02*
X95590400Y-73761900D01*
X92491900Y-83820000D02*
X92316100Y-83820000D01*
X92316100Y-83820000D02*
X90446500Y-81950400D01*
X90446500Y-81950400D02*
X90446500Y-78905800D01*
X90446500Y-78905800D02*
X95590400Y-73761900D01*
X92491900Y-83820000D02*
X92075000Y-83820000D01*
X98435000Y-81973200D02*
X94338700Y-81973200D01*
X94338700Y-81973200D02*
X92491900Y-83820000D01*
X117188000Y-77567000D02*
X115816200Y-77567000D01*
X98435000Y-83345000D02*
X98435000Y-81973200D01*
X115252500Y-52070000D02*
X115252500Y-53340300D01*
X102997000Y-53975000D02*
X104140300Y-53975000D01*
X104140300Y-53975000D02*
X104966200Y-53149100D01*
X104966200Y-53149100D02*
X110742600Y-53149100D01*
X110742600Y-53149100D02*
X110933800Y-53340300D01*
X110933800Y-53340300D02*
X115252500Y-53340300D01*
X102584600Y-53975000D02*
X102997000Y-53975000D01*
X101853700Y-53975000D02*
X101028800Y-53975000D01*
X101028800Y-53975000D02*
X99758800Y-55245000D01*
X115252500Y-50799700D02*
X114469600Y-50016800D01*
X114469600Y-50016800D02*
X114469600Y-46329100D01*
X114469600Y-46329100D02*
X112761700Y-44621200D01*
X112761700Y-44621200D02*
X91056300Y-44621200D01*
X91056300Y-44621200D02*
X89684500Y-45993000D01*
X89684500Y-45993000D02*
X89684500Y-47942300D01*
X89684500Y-47942300D02*
X93704500Y-51962300D01*
X93704500Y-51962300D02*
X93704500Y-60414700D01*
X93704500Y-60414700D02*
X96837500Y-63547700D01*
X96837500Y-63547700D02*
X96837500Y-64135000D01*
X98742500Y-55245000D02*
X99758800Y-55245000D01*
X115252500Y-52070000D02*
X115252500Y-50799700D01*
X102584600Y-53975000D02*
X101853700Y-53975000D01*
X96837500Y-55245000D02*
X96837500Y-56515300D01*
X102997000Y-56515000D02*
X101853700Y-56515000D01*
X101853700Y-56515000D02*
X101853400Y-56515300D01*
X101853400Y-56515300D02*
X96837500Y-56515300D01*
X96837500Y-53974700D02*
X98832200Y-53974700D01*
X98832200Y-53974700D02*
X99776800Y-53030100D01*
X99776800Y-53030100D02*
X99776800Y-48659600D01*
X99776800Y-48659600D02*
X99695000Y-48577800D01*
X99695000Y-46990000D02*
X99695000Y-48577800D01*
X96837500Y-55245000D02*
X96837500Y-53974700D01*
X101525900Y-61595000D02*
X98742500Y-61595000D01*
X101853700Y-61595000D02*
X101525900Y-61595000D01*
X102997000Y-61595000D02*
X101853700Y-61595000D01*
X115252500Y-71120300D02*
X111320300Y-71120300D01*
X115252500Y-69850000D02*
X115252500Y-71120300D01*
X107315000Y-46990000D02*
X107315000Y-45402200D01*
X107315000Y-45402200D02*
X91353500Y-45402200D01*
X91353500Y-45402200D02*
X90446900Y-46308800D01*
X90446900Y-46308800D02*
X90446900Y-47626400D01*
X90446900Y-47626400D02*
X94493300Y-51672800D01*
X94493300Y-51672800D02*
X94493300Y-58194400D01*
X94493300Y-58194400D02*
X96623600Y-60324700D01*
X96623600Y-60324700D02*
X96837500Y-60324700D01*
X96837500Y-61595000D02*
X96837500Y-60324700D01*
X102997000Y-59055000D02*
X101853700Y-59055000D01*
X101853700Y-59055000D02*
X101853700Y-59539700D01*
X101853700Y-59539700D02*
X101068700Y-60324700D01*
X101068700Y-60324700D02*
X96837500Y-60324700D01*
X120332500Y-52070000D02*
X120332500Y-50799700D01*
X117180400Y-47625000D02*
X117180400Y-48996900D01*
X117180400Y-48996900D02*
X118529700Y-48996900D01*
X118529700Y-48996900D02*
X120332500Y-50799700D01*
X126365000Y-47625000D02*
X121579600Y-47625000D01*
X120332500Y-60960000D02*
X120332500Y-59689700D01*
X117180400Y-56515000D02*
X117180400Y-57886900D01*
X117180400Y-57886900D02*
X118529700Y-57886900D01*
X118529700Y-57886900D02*
X120332500Y-59689700D01*
X126365000Y-56515000D02*
X121579600Y-56515000D01*
X117180400Y-65405000D02*
X117180400Y-66776900D01*
X117180400Y-66776900D02*
X117369700Y-66776900D01*
X117369700Y-66776900D02*
X120332500Y-69739700D01*
X120332500Y-69739700D02*
X120332500Y-69850000D01*
X126365000Y-65405000D02*
X121579600Y-65405000D01*
X130556000Y-50038000D02*
X128866600Y-50038000D01*
X126365000Y-50165000D02*
X128739600Y-50165000D01*
X128739600Y-50165000D02*
X128866600Y-50038000D01*
X126365000Y-59055000D02*
X130810000Y-59055000D01*
X126365000Y-67945000D02*
X130810000Y-67945000D01*
X105727500Y-65405000D02*
X105727500Y-64134700D01*
X108775400Y-61595000D02*
X106235700Y-64134700D01*
X106235700Y-64134700D02*
X105727500Y-64134700D01*
X108775400Y-61595000D02*
X108203700Y-61595000D01*
X109347000Y-61595000D02*
X108775400Y-61595000D01*
X109347000Y-60325000D02*
X108203700Y-60325000D01*
X108203700Y-60325000D02*
X108203700Y-61595000D01*
X103822500Y-65405000D02*
X102806200Y-65405000D01*
X92075000Y-57785000D02*
X90487100Y-59372900D01*
X90487100Y-59372900D02*
X90487100Y-66563900D01*
X90487100Y-66563900D02*
X91868500Y-67945300D01*
X91868500Y-67945300D02*
X100265900Y-67945300D01*
X100265900Y-67945300D02*
X102806200Y-65405000D01*
X109347000Y-55245000D02*
X108203700Y-55245000D01*
X108203700Y-55245000D02*
X104965100Y-58483600D01*
X104965100Y-58483600D02*
X104965100Y-61287300D01*
X104965100Y-61287300D02*
X102117400Y-64135000D01*
X102117400Y-64135000D02*
X98742500Y-64135000D01*
X98742500Y-64135000D02*
X98742500Y-65404700D01*
X98742500Y-66675000D02*
X98742500Y-65404700D01*
X96837500Y-66675000D02*
X95821200Y-66675000D01*
X92075000Y-60325000D02*
X95821200Y-64071200D01*
X95821200Y-64071200D02*
X95821200Y-66675000D01*
X110839300Y-56590200D02*
X113347500Y-59098400D01*
X113347500Y-59098400D02*
X113347500Y-60960000D01*
X110124800Y-56515000D02*
X110764100Y-56515000D01*
X110764100Y-56515000D02*
X110839300Y-56590200D01*
X109347000Y-56515000D02*
X110124800Y-56515000D01*
X113347500Y-60960000D02*
X113347500Y-69850000D01*
X115252500Y-60960000D02*
X115252500Y-59689700D01*
X115089500Y-54126900D02*
X116910000Y-54126900D01*
X116910000Y-54126900D02*
X117411200Y-53625700D01*
X110490300Y-53975000D02*
X110642200Y-54126900D01*
X110642200Y-54126900D02*
X115089500Y-54126900D01*
X115089500Y-54126900D02*
X115089500Y-59526700D01*
X115089500Y-59526700D02*
X115252500Y-59689700D01*
X109347000Y-53975000D02*
X110490300Y-53975000D01*
X117411200Y-53625700D02*
X119252200Y-55466700D01*
X119252200Y-55466700D02*
X119252200Y-57309400D01*
X119252200Y-57309400D02*
X125712400Y-63769600D01*
X125712400Y-63769600D02*
X129757800Y-63769600D01*
X129757800Y-63769600D02*
X132499500Y-66511300D01*
X132499500Y-66511300D02*
X132499500Y-71017700D01*
X132499500Y-71017700D02*
X130810000Y-72707200D01*
X117411200Y-52070000D02*
X117411200Y-53625700D01*
X130810000Y-73723500D02*
X130810000Y-72707200D01*
X118427500Y-52070000D02*
X117411200Y-52070000D01*
X128270000Y-75628500D02*
X128651000Y-75628500D01*
X128651000Y-75628500D02*
X130556000Y-73723500D01*
X130556000Y-73723500D02*
X130810000Y-73723500D01*
X128536700Y-72382800D02*
X128536700Y-72440500D01*
X128536700Y-72440500D02*
X128270000Y-72707200D01*
X128270000Y-73723500D02*
X128270000Y-72707200D01*
X113347500Y-52070000D02*
X113347500Y-50799700D01*
X112395000Y-46990000D02*
X112395000Y-49847200D01*
X112395000Y-49847200D02*
X113347500Y-50799700D01*
X109855000Y-46990000D02*
X112395000Y-46990000D01*
X115570000Y-83820000D02*
X113977000Y-82227000D01*
X113977000Y-82227000D02*
X108780000Y-82227000D01*
X108780000Y-82227000D02*
X108630600Y-82376400D01*
X108630600Y-82376400D02*
X105643100Y-82376400D01*
X105643100Y-82376400D02*
X105308100Y-82041400D01*
X105308100Y-82041400D02*
X105308100Y-78533100D01*
X105308100Y-78533100D02*
X105835800Y-78005400D01*
X105835800Y-78005400D02*
X110525800Y-78005400D01*
X110525800Y-78005400D02*
X111061200Y-77470000D01*
X118110000Y-83820000D02*
X115570000Y-83820000D01*
X112077500Y-77470000D02*
X111061200Y-77470000D01*
X114018600Y-77433900D02*
X113982500Y-77470000D01*
X117188000Y-76317000D02*
X115135500Y-76317000D01*
X115135500Y-76317000D02*
X114018600Y-77433900D01*
X114018600Y-77433900D02*
X112149900Y-75565300D01*
X112149900Y-75565300D02*
X112077500Y-75565300D01*
X112077500Y-74295000D02*
X112077500Y-75565300D01*
X118559800Y-73817000D02*
X120392600Y-75649800D01*
X120392600Y-75649800D02*
X120392600Y-78482600D01*
X120392600Y-78482600D02*
X125730000Y-83820000D01*
X117188000Y-73817000D02*
X118559800Y-73817000D01*
X114998800Y-74295000D02*
X115476800Y-73817000D01*
X115476800Y-73817000D02*
X117188000Y-73817000D01*
X113982500Y-74295000D02*
X114998800Y-74295000D01*
X122588000Y-77567000D02*
X123959800Y-77567000D01*
X125730000Y-79692500D02*
X124459700Y-79692500D01*
X124459700Y-79692500D02*
X124459700Y-78066900D01*
X124459700Y-78066900D02*
X123959800Y-77567000D01*
X128270000Y-79692500D02*
X125730000Y-79692500D01*
X132460999Y-80899001D02*
X132080000Y-81280000D01*
X132460999Y-79184499D02*
X132460999Y-80899001D01*
X131064000Y-77787500D02*
X132460999Y-79184499D01*
X130810000Y-77787500D02*
X131064000Y-77787500D01*
X122588000Y-76317000D02*
X121216200Y-76317000D01*
X121216200Y-76317000D02*
X121216200Y-78151400D01*
X121216200Y-78151400D02*
X124154100Y-81089300D01*
X124154100Y-81089300D02*
X127818100Y-81089300D01*
X130810000Y-77787500D02*
X130810000Y-76644800D01*
X130810000Y-75628500D02*
X130810000Y-76644800D01*
X130556000Y-79692500D02*
X130810000Y-79692500D01*
X129730500Y-80518000D02*
X130556000Y-79692500D01*
X129730500Y-80772000D02*
X129730500Y-80518000D01*
X128270000Y-82232500D02*
X129730500Y-80772000D01*
X128270000Y-83820000D02*
X128270000Y-82232500D01*
X118427500Y-69850000D02*
X118427500Y-71120300D01*
X119978800Y-71651600D02*
X119447500Y-71120300D01*
X119447500Y-71120300D02*
X118427500Y-71120300D01*
X125730000Y-77787500D02*
X125730000Y-76771200D01*
X118427500Y-60960000D02*
X118427500Y-62230300D01*
X118427500Y-62230300D02*
X119252100Y-63054900D01*
X119252100Y-63054900D02*
X119252100Y-66809000D01*
X119252100Y-66809000D02*
X123959800Y-71516700D01*
X123959800Y-71516700D02*
X123959800Y-75067000D01*
X122588000Y-75067000D02*
X123959800Y-75067000D01*
X123959800Y-75067000D02*
X125664000Y-76771200D01*
X125664000Y-76771200D02*
X125730000Y-76771200D01*
X99989600Y-72390000D02*
X99989600Y-73761900D01*
X97185000Y-77945000D02*
X97185000Y-76566500D01*
X97185000Y-76566500D02*
X99989600Y-73761900D01*
X123190000Y-83820000D02*
X123190000Y-85407800D01*
X130810000Y-83820000D02*
X129222200Y-85407800D01*
X129222200Y-85407800D02*
X123190000Y-85407800D01*
M02*
